<?xml version="1.0" standalone="no"?>
<!DOCTYPE svg PUBLIC "-//W3C//DTD SVG 20010904//EN"
 "http://www.w3.org/TR/2001/REC-SVG-20010904/DTD/svg10.dtd">
<svg version="1.0" xmlns="http://www.w3.org/2000/svg"
 width="981.000000pt" height="792.000000pt" viewBox="0 0 981.000000 792.000000"
 preserveAspectRatio="xMidYMid meet">

<g transform="translate(0.000000,792.000000) scale(0.100000,-0.100000)"
fill="#000000" stroke="none">
<path d="M3040 7910 c-131 -19 -212 -58 -273 -132 -83 -101 -156 -311 -191
-549 -35 -237 -41 -346 -40 -764 0 -418 7 -564 45 -977 l19 -217 -31 -68
c-115 -252 -207 -534 -259 -792 -30 -150 -60 -366 -60 -436 1 -149 128 -275
279 -275 152 0 281 129 281 282 0 123 58 407 126 619 240 746 750 1373 1437
1769 386 221 779 354 1227 415 164 23 516 30 691 16 951 -80 1799 -550 2361
-1308 295 -397 490 -869 570 -1378 20 -122 22 -179 22 -450 0 -271 -2 -328
-22 -450 -80 -509 -275 -981 -570 -1378 -563 -760 -1416 -1231 -2368 -1308
-179 -14 -519 -7 -684 16 -669 90 -1257 357 -1762 802 -290 256 -521 558 -726
949 -203 388 -348 594 -564 800 -281 268 -736 458 -1128 472 -242 8 -405 -25
-606 -123 -327 -159 -584 -473 -714 -871 -64 -198 -84 -326 -84 -554 -1 -203
6 -267 50 -443 43 -171 123 -348 225 -497 192 -280 467 -460 790 -516 141 -24
370 -15 504 20 110 30 252 93 341 152 175 116 307 296 355 482 54 210 -5 513
-124 634 -61 63 -108 83 -192 83 -82 -1 -134 -23 -183 -80 -61 -69 -66 -86
-72 -270 -5 -140 -10 -180 -28 -224 -59 -149 -171 -230 -338 -246 -98 -9 -206
15 -324 73 -80 39 -110 61 -186 137 -104 103 -163 195 -204 318 -43 126 -54
220 -54 447 0 181 2 214 22 285 85 307 293 514 597 596 65 18 108 22 230 22
130 0 163 -3 247 -26 380 -101 657 -350 908 -817 40 -74 97 -180 127 -235 230
-419 626 -864 1043 -1172 909 -670 2109 -902 3222 -623 443 111 901 322 1275
587 257 181 569 475 759 713 506 636 777 1369 801 2170 17 583 -104 1146 -364
1680 l-85 175 7 75 c40 455 56 1063 36 1360 -38 560 -139 872 -315 975 -180
105 -632 68 -1222 -100 -336 -97 -751 -238 -1098 -374 l-130 -51 -114 15
c-344 45 -705 41 -1077 -11 l-110 -15 -145 56 c-573 225 -1130 401 -1520 480
-248 50 -502 73 -630 55z m370 -556 c168 -26 371 -73 600 -141 182 -53 460
-145 460 -152 0 -4 -47 -28 -104 -55 -127 -58 -315 -164 -461 -260 -137 -90
-551 -401 -705 -530 l-115 -96 -7 38 c-11 57 -9 507 2 692 12 185 23 288 46
405 27 134 22 128 112 121 42 -4 120 -14 172 -22z m5395 -46 c45 -201 65 -459
65 -861 l0 -279 -47 42 c-498 435 -824 656 -1248 845 l-60 27 120 39 c449 148
887 249 1112 257 l41 2 17 -72z"/>
</g>
</svg>
